<svg width="169" height="62" viewBox="0 0 169 62" fill="none" xmlns="http://www.w3.org/2000/svg">
<g clip-path="url(#clip0_852_304)">
<path d="M23.868 2.66C28.404 2.66 31.932 4.046 34.452 6.818C37.008 9.59 38.286 13.55 38.286 18.698V41H31.266V18.968C31.266 15.62 30.456 13.1 28.836 11.408C27.252 9.68 25.038 8.816 22.194 8.816C19.098 8.816 16.632 9.734 14.796 11.57C12.996 13.37 12.096 16.07 12.096 19.67V41H5.076V3.2H11.88V7.952C14.508 4.424 18.504 2.66 23.868 2.66ZM65.7653 41.54C61.9133 41.54 58.4393 40.712 55.3433 39.056C52.2473 37.364 49.8173 35.042 48.0533 32.09C46.2893 29.102 45.4073 25.772 45.4073 22.1C45.4073 18.428 46.2893 15.116 48.0533 12.164C49.8173 9.176 52.2473 6.854 55.3433 5.198C58.4393 3.506 61.9133 2.66 65.7653 2.66C69.6173 2.66 73.0913 3.506 76.1873 5.198C79.2833 6.854 81.7133 9.158 83.4773 12.11C85.2413 15.062 86.1233 18.392 86.1233 22.1C86.1233 25.808 85.2413 29.138 83.4773 32.09C81.7133 35.042 79.2833 37.364 76.1873 39.056C73.0913 40.712 69.6173 41.54 65.7653 41.54ZM65.7653 35.384C68.2853 35.384 70.5533 34.826 72.5693 33.71C74.5853 32.558 76.1693 30.974 77.3213 28.958C78.4733 26.906 79.0493 24.62 79.0493 22.1C79.0493 19.58 78.4733 17.312 77.3213 15.296C76.1693 13.244 74.5853 11.66 72.5693 10.544C70.5533 9.392 68.2853 8.816 65.7653 8.816C63.2453 8.816 60.9773 9.392 58.9613 10.544C56.9453 11.66 55.3613 13.244 54.2093 15.296C53.0573 17.312 52.4813 19.58 52.4813 22.1C52.4813 24.62 53.0573 26.906 54.2093 28.958C55.3613 30.974 56.9453 32.558 58.9613 33.71C60.9773 34.826 63.2453 35.384 65.7653 35.384ZM93.5643 3.2H110.088C114.12 3.2 117.702 3.992 120.834 5.576C123.966 7.124 126.396 9.338 128.124 12.218C129.852 15.062 130.716 18.356 130.716 22.1C130.716 25.844 129.852 29.156 128.124 32.036C126.396 34.88 123.966 37.094 120.834 38.678C117.702 40.226 114.12 41 110.088 41H93.5643V3.2ZM109.764 35.06C112.536 35.06 114.966 34.538 117.054 33.494C119.178 32.414 120.798 30.902 121.914 28.958C123.066 26.978 123.642 24.692 123.642 22.1C123.642 19.508 123.066 17.24 121.914 15.296C120.798 13.316 119.178 11.804 117.054 10.76C114.966 9.68 112.536 9.14 109.764 9.14H100.584V35.06H109.764ZM167.662 37.382C165.97 38.714 163.792 39.74 161.128 40.46C158.464 41.18 155.584 41.54 152.488 41.54C148.852 41.54 145.756 41.072 143.2 40.136C140.68 39.2 138.772 37.904 137.476 36.248C136.18 34.592 135.532 32.684 135.532 30.524C135.532 28.436 136.108 26.618 137.26 25.07C138.412 23.522 139.96 22.388 141.904 21.668C140.428 20.876 139.258 19.778 138.394 18.374C137.566 16.934 137.152 15.332 137.152 13.568C137.152 11.552 137.746 9.734 138.934 8.114C140.158 6.458 141.976 5.144 144.388 4.172C146.8 3.164 149.77 2.66 153.298 2.66C155.674 2.66 157.996 2.912 160.264 3.416C162.532 3.92 164.512 4.604 166.204 5.468L164.206 11.03C161.038 9.374 157.492 8.546 153.568 8.546C150.472 8.546 148.132 9.05 146.548 10.058C145 11.03 144.226 12.344 144.226 14C144.226 15.62 144.802 16.862 145.954 17.726C147.106 18.554 148.798 18.968 151.03 18.968H161.02V24.8H150.652C148.096 24.8 146.116 25.25 144.712 26.15C143.308 27.014 142.606 28.31 142.606 30.038C142.606 31.766 143.452 33.134 145.144 34.142C146.836 35.15 149.392 35.654 152.812 35.654C155.188 35.654 157.492 35.33 159.724 34.682C161.992 34.034 163.882 33.134 165.394 31.982L167.662 37.382Z" fill="#131313"/>
<path d="M4.008 50.848C4.408 50 5 49.36 5.784 48.928C6.584 48.496 7.568 48.28 8.736 48.28V49.936L8.328 49.912C7 49.912 5.96 50.32 5.208 51.136C4.456 51.952 4.08 53.096 4.08 54.568V61H2.376V48.376H4.008V50.848ZM17.1041 59.608C17.8881 59.608 18.6081 59.472 19.2641 59.2C19.9361 58.912 20.5041 58.496 20.9681 57.952L21.9281 59.056C21.3681 59.728 20.6721 60.24 19.8401 60.592C19.0081 60.944 18.0881 61.12 17.0801 61.12C15.7841 61.12 14.6321 60.848 13.6241 60.304C12.6161 59.744 11.8321 58.976 11.2721 58C10.7121 57.024 10.4321 55.92 10.4321 54.688C10.4321 53.456 10.6961 52.352 11.2241 51.376C11.7681 50.4 12.5121 49.64 13.4561 49.096C14.4001 48.552 15.4721 48.28 16.6721 48.28C17.7921 48.28 18.8001 48.536 19.6961 49.048C20.6081 49.56 21.3281 50.272 21.8561 51.184C22.4001 52.096 22.6881 53.136 22.7201 54.304L12.3521 56.32C12.6721 57.344 13.2481 58.152 14.0801 58.744C14.9281 59.32 15.9361 59.608 17.1041 59.608ZM16.6721 49.744C15.7921 49.744 15.0001 49.952 14.2961 50.368C13.6081 50.768 13.0641 51.336 12.6641 52.072C12.2801 52.792 12.0881 53.624 12.0881 54.568C12.0881 54.808 12.0961 54.984 12.1121 55.096L21.0161 53.368C20.8241 52.312 20.3361 51.448 19.5521 50.776C18.7681 50.088 17.8081 49.744 16.6721 49.744ZM32.6205 48.28C34.2045 48.28 35.4605 48.744 36.3885 49.672C37.3325 50.584 37.8045 51.92 37.8045 53.68V61H36.1005V53.848C36.1005 52.536 35.7725 51.536 35.1165 50.848C34.4605 50.16 33.5245 49.816 32.3085 49.816C30.9485 49.816 29.8685 50.224 29.0685 51.04C28.2845 51.84 27.8925 52.952 27.8925 54.376V61H26.1885V48.376H27.8205V50.704C28.2845 49.936 28.9245 49.344 29.7405 48.928C30.5725 48.496 31.5325 48.28 32.6205 48.28ZM53.9976 43.192V61H52.3656V58.504C51.8536 59.352 51.1736 60 50.3256 60.448C49.4936 60.896 48.5496 61.12 47.4936 61.12C46.3096 61.12 45.2376 60.848 44.2776 60.304C43.3176 59.76 42.5656 59 42.0216 58.024C41.4776 57.048 41.2056 55.936 41.2056 54.688C41.2056 53.44 41.4776 52.328 42.0216 51.352C42.5656 50.376 43.3176 49.624 44.2776 49.096C45.2376 48.552 46.3096 48.28 47.4936 48.28C48.5176 48.28 49.4376 48.496 50.2536 48.928C51.0856 49.344 51.7656 49.96 52.2936 50.776V43.192H53.9976ZM47.6376 59.608C48.5176 59.608 49.3096 59.408 50.0136 59.008C50.7336 58.592 51.2936 58.008 51.6936 57.256C52.1096 56.504 52.3176 55.648 52.3176 54.688C52.3176 53.728 52.1096 52.872 51.6936 52.12C51.2936 51.368 50.7336 50.792 50.0136 50.392C49.3096 49.976 48.5176 49.768 47.6376 49.768C46.7416 49.768 45.9336 49.976 45.2136 50.392C44.5096 50.792 43.9496 51.368 43.5336 52.12C43.1336 52.872 42.9336 53.728 42.9336 54.688C42.9336 55.648 43.1336 56.504 43.5336 57.256C43.9496 58.008 44.5096 58.592 45.2136 59.008C45.9336 59.408 46.7416 59.608 47.6376 59.608ZM64.1432 59.608C64.9272 59.608 65.6472 59.472 66.3032 59.2C66.9752 58.912 67.5432 58.496 68.0072 57.952L68.9672 59.056C68.4072 59.728 67.7112 60.24 66.8792 60.592C66.0472 60.944 65.1272 61.12 64.1192 61.12C62.8232 61.12 61.6712 60.848 60.6632 60.304C59.6552 59.744 58.8712 58.976 58.3112 58C57.7512 57.024 57.4712 55.92 57.4712 54.688C57.4712 53.456 57.7352 52.352 58.2632 51.376C58.8072 50.4 59.5512 49.64 60.4952 49.096C61.4392 48.552 62.5112 48.28 63.7112 48.28C64.8312 48.28 65.8392 48.536 66.7352 49.048C67.6472 49.56 68.3672 50.272 68.8952 51.184C69.4392 52.096 69.7272 53.136 69.7592 54.304L59.3912 56.32C59.7112 57.344 60.2872 58.152 61.1192 58.744C61.9672 59.32 62.9752 59.608 64.1432 59.608ZM63.7112 49.744C62.8312 49.744 62.0392 49.952 61.3352 50.368C60.6472 50.768 60.1032 51.336 59.7032 52.072C59.3192 52.792 59.1272 53.624 59.1272 54.568C59.1272 54.808 59.1352 54.984 59.1512 55.096L68.0552 53.368C67.8632 52.312 67.3752 51.448 66.5912 50.776C65.8072 50.088 64.8472 49.744 63.7112 49.744ZM74.8596 50.848C75.2596 50 75.8516 49.36 76.6356 48.928C77.4356 48.496 78.4196 48.28 79.5876 48.28V49.936L79.1796 49.912C77.8516 49.912 76.8116 50.32 76.0596 51.136C75.3076 51.952 74.9316 53.096 74.9316 54.568V61H73.2276V48.376H74.8596V50.848Z" fill="#868798"/>
</g>
<defs>
<clipPath id="clip0_852_304">
<rect width="169" height="62" fill="white"/>
</clipPath>
</defs>
</svg>
