<svg width="164" height="62" viewBox="0 0 164 62" fill="none" xmlns="http://www.w3.org/2000/svg">
<path d="M18.868 2.66C23.404 2.66 26.932 4.046 29.452 6.818C32.008 9.59 33.286 13.55 33.286 18.698V41H26.266V18.968C26.266 15.62 25.456 13.1 23.836 11.408C22.252 9.68 20.038 8.816 17.194 8.816C14.098 8.816 11.632 9.734 9.796 11.57C7.996 13.37 7.096 16.07 7.096 19.67V41H0.0760002V3.2H6.88V7.952C9.508 4.424 13.504 2.66 18.868 2.66ZM60.7653 41.54C56.9133 41.54 53.4393 40.712 50.3433 39.056C47.2473 37.364 44.8173 35.042 43.0533 32.09C41.2893 29.102 40.4073 25.772 40.4073 22.1C40.4073 18.428 41.2893 15.116 43.0533 12.164C44.8173 9.176 47.2473 6.854 50.3433 5.198C53.4393 3.506 56.9133 2.66 60.7653 2.66C64.6173 2.66 68.0913 3.506 71.1873 5.198C74.2833 6.854 76.7133 9.158 78.4773 12.11C80.2413 15.062 81.1233 18.392 81.1233 22.1C81.1233 25.808 80.2413 29.138 78.4773 32.09C76.7133 35.042 74.2833 37.364 71.1873 39.056C68.0913 40.712 64.6173 41.54 60.7653 41.54ZM60.7653 35.384C63.2853 35.384 65.5533 34.826 67.5693 33.71C69.5853 32.558 71.1693 30.974 72.3213 28.958C73.4733 26.906 74.0493 24.62 74.0493 22.1C74.0493 19.58 73.4733 17.312 72.3213 15.296C71.1693 13.244 69.5853 11.66 67.5693 10.544C65.5533 9.392 63.2853 8.816 60.7653 8.816C58.2453 8.816 55.9773 9.392 53.9613 10.544C51.9453 11.66 50.3613 13.244 49.2093 15.296C48.0573 17.312 47.4813 19.58 47.4813 22.1C47.4813 24.62 48.0573 26.906 49.2093 28.958C50.3613 30.974 51.9453 32.558 53.9613 33.71C55.9773 34.826 58.2453 35.384 60.7653 35.384ZM88.5643 3.2H105.088C109.12 3.2 112.702 3.992 115.834 5.576C118.966 7.124 121.396 9.338 123.124 12.218C124.852 15.062 125.716 18.356 125.716 22.1C125.716 25.844 124.852 29.156 123.124 32.036C121.396 34.88 118.966 37.094 115.834 38.678C112.702 40.226 109.12 41 105.088 41H88.5643V3.2ZM104.764 35.06C107.536 35.06 109.966 34.538 112.054 33.494C114.178 32.414 115.798 30.902 116.914 28.958C118.066 26.978 118.642 24.692 118.642 22.1C118.642 19.508 118.066 17.24 116.914 15.296C115.798 13.316 114.178 11.804 112.054 10.76C109.966 9.68 107.536 9.14 104.764 9.14H95.5843V35.06H104.764ZM162.662 37.382C160.97 38.714 158.792 39.74 156.128 40.46C153.464 41.18 150.584 41.54 147.488 41.54C143.852 41.54 140.756 41.072 138.2 40.136C135.68 39.2 133.772 37.904 132.476 36.248C131.18 34.592 130.532 32.684 130.532 30.524C130.532 28.436 131.108 26.618 132.26 25.07C133.412 23.522 134.96 22.388 136.904 21.668C135.428 20.876 134.258 19.778 133.394 18.374C132.566 16.934 132.152 15.332 132.152 13.568C132.152 11.552 132.746 9.734 133.934 8.114C135.158 6.458 136.976 5.144 139.388 4.172C141.8 3.164 144.77 2.66 148.298 2.66C150.674 2.66 152.996 2.912 155.264 3.416C157.532 3.92 159.512 4.604 161.204 5.468L159.206 11.03C156.038 9.374 152.492 8.546 148.568 8.546C145.472 8.546 143.132 9.05 141.548 10.058C140 11.03 139.226 12.344 139.226 14C139.226 15.62 139.802 16.862 140.954 17.726C142.106 18.554 143.798 18.968 146.03 18.968H156.02V24.8H145.652C143.096 24.8 141.116 25.25 139.712 26.15C138.308 27.014 137.606 28.31 137.606 30.038C137.606 31.766 138.452 33.134 140.144 34.142C141.836 35.15 144.392 35.654 147.812 35.654C150.188 35.654 152.492 35.33 154.724 34.682C156.992 34.034 158.882 33.134 160.394 31.982L162.662 37.382Z" fill="#131313"/>
<path d="M2.008 50.848C2.408 50 3 49.36 3.784 48.928C4.584 48.496 5.568 48.28 6.736 48.28V49.936L6.328 49.912C5 49.912 3.96 50.32 3.208 51.136C2.456 51.952 2.08 53.096 2.08 54.568V61H0.376V48.376H2.008V50.848ZM15.1041 59.608C15.8881 59.608 16.6081 59.472 17.2641 59.2C17.9361 58.912 18.5041 58.496 18.9681 57.952L19.9281 59.056C19.3681 59.728 18.6721 60.24 17.8401 60.592C17.0081 60.944 16.0881 61.12 15.0801 61.12C13.7841 61.12 12.6321 60.848 11.6241 60.304C10.6161 59.744 9.83213 58.976 9.27213 58C8.71213 57.024 8.43213 55.92 8.43213 54.688C8.43213 53.456 8.69613 52.352 9.22413 51.376C9.76813 50.4 10.5121 49.64 11.4561 49.096C12.4001 48.552 13.4721 48.28 14.6721 48.28C15.7921 48.28 16.8001 48.536 17.6961 49.048C18.6081 49.56 19.3281 50.272 19.8561 51.184C20.4001 52.096 20.6881 53.136 20.7201 54.304L10.3521 56.32C10.6721 57.344 11.2481 58.152 12.0801 58.744C12.9281 59.32 13.9361 59.608 15.1041 59.608ZM14.6721 49.744C13.7921 49.744 13.0001 49.952 12.2961 50.368C11.6081 50.768 11.0641 51.336 10.6641 52.072C10.2801 52.792 10.0881 53.624 10.0881 54.568C10.0881 54.808 10.0961 54.984 10.1121 55.096L19.0161 53.368C18.8241 52.312 18.3361 51.448 17.5521 50.776C16.7681 50.088 15.8081 49.744 14.6721 49.744ZM30.6205 48.28C32.2045 48.28 33.4605 48.744 34.3885 49.672C35.3325 50.584 35.8045 51.92 35.8045 53.68V61H34.1005V53.848C34.1005 52.536 33.7725 51.536 33.1165 50.848C32.4605 50.16 31.5245 49.816 30.3085 49.816C28.9485 49.816 27.8685 50.224 27.0685 51.04C26.2845 51.84 25.8925 52.952 25.8925 54.376V61H24.1885V48.376H25.8205V50.704C26.2845 49.936 26.9245 49.344 27.7405 48.928C28.5725 48.496 29.5325 48.28 30.6205 48.28ZM51.9976 43.192V61H50.3656V58.504C49.8536 59.352 49.1736 60 48.3256 60.448C47.4936 60.896 46.5496 61.12 45.4936 61.12C44.3096 61.12 43.2376 60.848 42.2776 60.304C41.3176 59.76 40.5656 59 40.0216 58.024C39.4776 57.048 39.2056 55.936 39.2056 54.688C39.2056 53.44 39.4776 52.328 40.0216 51.352C40.5656 50.376 41.3176 49.624 42.2776 49.096C43.2376 48.552 44.3096 48.28 45.4936 48.28C46.5176 48.28 47.4376 48.496 48.2536 48.928C49.0856 49.344 49.7656 49.96 50.2936 50.776V43.192H51.9976ZM45.6376 59.608C46.5176 59.608 47.3096 59.408 48.0136 59.008C48.7336 58.592 49.2936 58.008 49.6936 57.256C50.1096 56.504 50.3176 55.648 50.3176 54.688C50.3176 53.728 50.1096 52.872 49.6936 52.12C49.2936 51.368 48.7336 50.792 48.0136 50.392C47.3096 49.976 46.5176 49.768 45.6376 49.768C44.7416 49.768 43.9336 49.976 43.2136 50.392C42.5096 50.792 41.9496 51.368 41.5336 52.12C41.1336 52.872 40.9336 53.728 40.9336 54.688C40.9336 55.648 41.1336 56.504 41.5336 57.256C41.9496 58.008 42.5096 58.592 43.2136 59.008C43.9336 59.408 44.7416 59.608 45.6376 59.608ZM62.1432 59.608C62.9272 59.608 63.6472 59.472 64.3032 59.2C64.9752 58.912 65.5432 58.496 66.0072 57.952L66.9672 59.056C66.4072 59.728 65.7112 60.24 64.8792 60.592C64.0472 60.944 63.1272 61.12 62.1192 61.12C60.8232 61.12 59.6712 60.848 58.6632 60.304C57.6552 59.744 56.8712 58.976 56.3112 58C55.7512 57.024 55.4712 55.92 55.4712 54.688C55.4712 53.456 55.7352 52.352 56.2632 51.376C56.8072 50.4 57.5512 49.64 58.4952 49.096C59.4392 48.552 60.5112 48.28 61.7112 48.28C62.8312 48.28 63.8392 48.536 64.7352 49.048C65.6472 49.56 66.3672 50.272 66.8952 51.184C67.4392 52.096 67.7272 53.136 67.7592 54.304L57.3912 56.32C57.7112 57.344 58.2872 58.152 59.1192 58.744C59.9672 59.32 60.9752 59.608 62.1432 59.608ZM61.7112 49.744C60.8312 49.744 60.0392 49.952 59.3352 50.368C58.6472 50.768 58.1032 51.336 57.7032 52.072C57.3192 52.792 57.1272 53.624 57.1272 54.568C57.1272 54.808 57.1352 54.984 57.1512 55.096L66.0552 53.368C65.8632 52.312 65.3752 51.448 64.5912 50.776C63.8072 50.088 62.8472 49.744 61.7112 49.744ZM72.8596 50.848C73.2596 50 73.8516 49.36 74.6356 48.928C75.4356 48.496 76.4196 48.28 77.5876 48.28V49.936L77.1796 49.912C75.8516 49.912 74.8116 50.32 74.0596 51.136C73.3076 51.952 72.9316 53.096 72.9316 54.568V61H71.2276V48.376H72.8596V50.848Z" fill="#868798"/>
</svg>
