<svg width="115" height="40" viewBox="0 0 115 40" fill="none" xmlns="http://www.w3.org/2000/svg">
<path d="M13.292 0C16.5004 0 18.9958 0.96595 20.7782 2.89785C22.5861 4.82975 23.4901 7.58961 23.4901 11.1774V26.7204H18.5247V11.3656C18.5247 9.03226 17.9518 7.27599 16.8059 6.09677C15.6855 4.89247 14.1195 4.29032 12.1079 4.29032C9.91804 4.29032 8.17379 4.93011 6.87515 6.20968C5.60197 7.46416 4.96539 9.34588 4.96539 11.8548V26.7204H0V0.376344H4.81261V3.68817C6.67144 1.22939 9.49789 0 13.292 0Z" fill="white"/>
<path d="M42.9267 27.0968C40.2021 27.0968 37.7449 26.5197 35.555 25.3656C33.3652 24.1864 31.6464 22.5681 30.3987 20.5108C29.151 18.4283 28.5271 16.1075 28.5271 13.5484C28.5271 10.9892 29.151 8.681 30.3987 6.62366C31.6464 4.54122 33.3652 2.92294 35.555 1.76882C37.7449 0.589606 40.2021 0 42.9267 0C45.6513 0 48.1085 0.589606 50.2984 1.76882C52.4883 2.92294 54.2071 4.52867 55.4548 6.58602C56.7025 8.64337 57.3263 10.9642 57.3263 13.5484C57.3263 16.1326 56.7025 18.4534 55.4548 20.5108C54.2071 22.5681 52.4883 24.1864 50.2984 25.3656C48.1085 26.5197 45.6513 27.0968 42.9267 27.0968ZM42.9267 22.8064C44.7092 22.8064 46.3134 22.4176 47.7393 21.6398C49.1653 20.8369 50.2857 19.733 51.1005 18.328C51.9153 16.8979 52.3228 15.3047 52.3228 13.5484C52.3228 11.7921 51.9153 10.2115 51.1005 8.80645C50.2857 7.37634 49.1653 6.2724 47.7393 5.49462C46.3134 4.69176 44.7092 4.29032 42.9267 4.29032C41.1443 4.29032 39.5401 4.69176 38.1141 5.49462C36.6882 6.2724 35.5678 7.37634 34.7529 8.80645C33.9381 10.2115 33.5307 11.7921 33.5307 13.5484C33.5307 15.3047 33.9381 16.8979 34.7529 18.328C35.5678 19.733 36.6882 20.8369 38.1141 21.6398C39.5401 22.4176 41.1443 22.8064 42.9267 22.8064Z" fill="white"/>
<path d="M62.5895 0.376344H74.2773C77.1292 0.376344 79.6628 0.928316 81.8781 2.03226C84.0935 3.11111 85.8122 4.65412 87.0345 6.66129C88.2567 8.64337 88.8679 10.9391 88.8679 13.5484C88.8679 16.1577 88.2567 18.466 87.0345 20.4731C85.8122 22.4552 84.0935 23.9982 81.8781 25.1022C79.6628 26.181 77.1292 26.7204 74.2773 26.7204H62.5895V0.376344ZM74.0481 22.5806C76.0088 22.5806 77.7276 22.2168 79.2045 21.4892C80.7068 20.7366 81.8527 19.6828 82.642 18.328C83.4569 16.948 83.8643 15.3548 83.8643 13.5484C83.8643 11.7419 83.4569 10.1613 82.642 8.80645C81.8527 7.42652 80.7068 6.37276 79.2045 5.64516C77.7276 4.89247 76.0088 4.51613 74.0481 4.51613H67.5549V22.5806H74.0481Z" fill="white"/>
<path d="M115 24.1989C113.803 25.1272 112.263 25.8423 110.378 26.3441C108.494 26.8459 106.457 27.0968 104.267 27.0968C101.695 27.0968 99.5055 26.7706 97.6975 26.1183C95.9151 25.466 94.5655 24.5627 93.6488 23.4086C92.7322 22.2545 92.2738 20.9247 92.2738 19.4194C92.2738 17.9642 92.6812 16.6971 93.4961 15.6183C94.3109 14.5394 95.4058 13.7491 96.7809 13.2473C95.7369 12.6953 94.9093 11.9301 94.2982 10.9516C93.7125 9.94803 93.4197 8.83154 93.4197 7.60215C93.4197 6.19713 93.8398 4.93011 94.6801 3.80108C95.5459 2.64695 96.8318 1.73118 98.5378 1.05376C100.244 0.351255 102.345 0 104.84 0C106.521 0 108.163 0.175627 109.767 0.526882C111.371 0.878136 112.772 1.35484 113.969 1.95699L112.556 5.83333C110.315 4.67921 107.807 4.10215 105.031 4.10215C102.841 4.10215 101.186 4.45341 100.066 5.15591C98.9707 5.83333 98.4233 6.7491 98.4233 7.90323C98.4233 9.03226 98.8307 9.89785 99.6455 10.5C100.46 11.0771 101.657 11.3656 103.236 11.3656H110.302V15.4301H102.968C101.161 15.4301 99.7601 15.7437 98.767 16.371C97.7739 16.9731 97.2774 17.8763 97.2774 19.0806C97.2774 20.2849 97.8758 21.2383 99.0726 21.9409C100.269 22.6434 102.077 22.9946 104.496 22.9946C106.177 22.9946 107.807 22.7688 109.385 22.3172C110.99 21.8656 112.326 21.2384 113.396 20.4355L115 24.1989Z" fill="white"/>
<path d="M1.16012 33.3464C1.44446 32.7971 1.86529 32.3825 2.4226 32.1027C2.99129 31.8229 3.69077 31.683 4.52105 31.683V32.7556L4.23102 32.7401C3.287 32.7401 2.54771 33.0044 2.01315 33.533C1.47858 34.0615 1.2113 34.8025 1.2113 35.756V39.9224H0V31.7452H1.16012V33.3464Z" fill="white" fill-opacity="0.5"/>
<path d="M10.4696 39.0207C11.0269 39.0207 11.5387 38.9326 12.005 38.7564C12.4827 38.5699 12.8865 38.3004 13.2163 37.948L13.8988 38.6631C13.5007 39.0984 13.0059 39.4301 12.4145 39.6581C11.8231 39.8861 11.1691 40.0001 10.4525 40.0001C9.53126 40.0001 8.71235 39.8239 7.99581 39.4715C7.27926 39.1088 6.72195 38.6113 6.32387 37.9791C5.92579 37.3469 5.72675 36.6318 5.72675 35.8338C5.72675 35.0357 5.91442 34.3206 6.28975 33.6884C6.67646 33.0562 7.20533 32.5639 7.87638 32.2115C8.54743 31.8592 9.30947 31.683 10.1625 31.683C10.9587 31.683 11.6752 31.8488 12.3121 32.1804C12.9604 32.5121 13.4722 32.9733 13.8476 33.564C14.2343 34.1548 14.439 34.8285 14.4618 35.585L7.0916 36.8909C7.31907 37.5542 7.72852 38.0776 8.31996 38.4611C8.92276 38.8342 9.63931 39.0207 10.4696 39.0207ZM10.1625 32.6313C9.53694 32.6313 8.97394 32.766 8.4735 33.0355C7.98443 33.2946 7.59773 33.6625 7.31338 34.1392C7.04041 34.6056 6.90393 35.1446 6.90393 35.756C6.90393 35.9115 6.90962 36.0255 6.92099 36.0981L13.2505 34.9787C13.114 34.2947 12.7671 33.735 12.2098 33.2998C11.6525 32.8541 10.97 32.6313 10.1625 32.6313Z" fill="white" fill-opacity="0.5"/>
<path d="M21.4995 31.683C22.6255 31.683 23.5183 31.9835 24.178 32.5846C24.8491 33.1754 25.1846 34.0408 25.1846 35.1808V39.9224H23.9733V35.2897C23.9733 34.4398 23.7401 33.7921 23.2738 33.3464C22.8075 32.9007 22.1421 32.6779 21.2777 32.6779C20.311 32.6779 19.5432 32.9422 18.9745 33.4708C18.4172 33.989 18.1386 34.7093 18.1386 35.6317V39.9224H16.9273V31.7452H18.0874V33.2531C18.4172 32.7556 18.8722 32.3722 19.4522 32.1027C20.0437 31.8229 20.7261 31.683 21.4995 31.683Z" fill="white" fill-opacity="0.5"/>
<path d="M36.6955 28.3872V39.9224H35.5354V38.3056C35.1715 38.8549 34.6881 39.2746 34.0853 39.5648C33.4938 39.855 32.8228 40.0001 32.0721 40.0001C31.2305 40.0001 30.4684 39.8239 29.786 39.4715C29.1036 39.1192 28.569 38.6269 28.1823 37.9947C27.7956 37.3625 27.6023 36.6422 27.6023 35.8338C27.6023 35.0254 27.7956 34.3051 28.1823 33.6729C28.569 33.0407 29.1036 32.5535 29.786 32.2115C30.4684 31.8592 31.2305 31.683 32.0721 31.683C32.8 31.683 33.454 31.8229 34.0341 32.1027C34.6255 32.3722 35.1089 32.7712 35.4842 33.2998V28.3872H36.6955ZM32.1745 39.0207C32.8 39.0207 33.363 38.8912 33.8635 38.6321C34.3753 38.3626 34.7734 37.9843 35.0577 37.4972C35.3534 37.0101 35.5013 36.4556 35.5013 35.8338C35.5013 35.2119 35.3534 34.6574 35.0577 34.1703C34.7734 33.6832 34.3753 33.3101 33.8635 33.051C33.363 32.7816 32.8 32.6468 32.1745 32.6468C31.5376 32.6468 30.9632 32.7816 30.4514 33.051C29.9509 33.3101 29.5528 33.6832 29.2571 34.1703C28.9728 34.6574 28.8306 35.2119 28.8306 35.8338C28.8306 36.4556 28.9728 37.0101 29.2571 37.4972C29.5528 37.9843 29.9509 38.3626 30.4514 38.6321C30.9632 38.8912 31.5376 39.0207 32.1745 39.0207Z" fill="white" fill-opacity="0.5"/>
<path d="M43.9076 39.0207C44.4649 39.0207 44.9768 38.9326 45.4431 38.7564C45.9208 38.5699 46.3245 38.3004 46.6544 37.948L47.3368 38.6631C46.9387 39.0984 46.444 39.4301 45.8525 39.6581C45.2611 39.8861 44.6071 40.0001 43.8906 40.0001C42.9693 40.0001 42.1504 39.8239 41.4338 39.4715C40.7173 39.1088 40.16 38.6113 39.7619 37.9791C39.3638 37.3469 39.1648 36.6318 39.1648 35.8338C39.1648 35.0357 39.3525 34.3206 39.7278 33.6884C40.1145 33.0562 40.6434 32.5639 41.3144 32.2115C41.9855 31.8592 42.7475 31.683 43.6005 31.683C44.3967 31.683 45.1132 31.8488 45.7502 32.1804C46.3985 32.5121 46.9103 32.9733 47.2856 33.564C47.6723 34.1548 47.877 34.8285 47.8998 35.585L40.5296 36.8909C40.7571 37.5542 41.1666 38.0776 41.758 38.4611C42.3608 38.8342 43.0773 39.0207 43.9076 39.0207ZM43.6005 32.6313C42.975 32.6313 42.412 32.766 41.9115 33.0355C41.4225 33.2946 41.0358 33.6625 40.7514 34.1392C40.4785 34.6056 40.342 35.1446 40.342 35.756C40.342 35.9115 40.3477 36.0255 40.359 36.0981L46.6885 34.9787C46.552 34.2947 46.2051 33.735 45.6478 33.2998C45.0905 32.8541 44.4081 32.6313 43.6005 32.6313Z" fill="white" fill-opacity="0.5"/>
<path d="M51.5254 33.3464C51.8098 32.7971 52.2306 32.3825 52.7879 32.1027C53.3566 31.8229 54.0561 31.683 54.8864 31.683V32.7556L54.5963 32.7401C53.6523 32.7401 52.913 33.0044 52.3785 33.533C51.8439 34.0615 51.5766 34.8025 51.5766 35.756V39.9224H50.3653V31.7452H51.5254V33.3464Z" fill="white" fill-opacity="0.5"/>
</svg>
